<svg version="1.1" id="Layer_1" xmlns="http://www.w3.org/2000/svg" xmlns:xlink="http://www.w3.org/1999/xlink" x="0px" y="0px"
	 width="100%" viewBox="0 0 615 583" enable-background="new 0 0 615 583" xml:space="preserve">
<path fill="#073863" opacity="1.000000" stroke="none" 
	d="
M1.000000,206.000000 
	C1.000000,137.333359 1.000000,69.166710 1.000000,1.000046 
	C205.999924,1.000031 410.999847,1.000031 615.999817,1.000015 
	C615.999878,195.333191 615.999878,389.666382 615.999939,583.999634 
	C411.000214,583.999756 206.000397,583.999756 1.000301,583.999878 
	C1.000000,458.166656 1.000000,332.333344 1.000000,206.000000 
M307.172119,74.694855 
	C305.372101,74.481461 303.572113,74.082176 301.772034,74.081459 
	C229.509888,74.052567 157.247757,74.053421 84.985641,74.107437 
	C83.538902,74.108521 82.092659,74.784866 80.486580,75.524582 
	C80.486580,75.524582 80.412003,75.928429 80.065910,76.411255 
	C79.998253,76.596657 79.930603,76.782051 79.258232,77.417603 
	C78.872124,79.648087 78.150337,81.878296 78.148476,84.109100 
	C78.083679,161.713531 78.082588,239.318024 78.081406,316.922516 
	C78.080338,387.078217 78.073883,457.233917 78.169327,527.389465 
	C78.172256,529.542603 79.282600,531.694092 80.123711,534.366394 
	C80.199509,534.542664 80.275314,534.718994 80.956261,535.322266 
	C82.756248,535.530090 84.556160,535.918823 86.356232,535.919617 
	C158.076035,535.950195 229.795837,535.953552 301.515625,535.905701 
	C303.620636,535.904297 305.725220,535.314026 308.180328,534.764343 
	C308.180328,534.764343 308.592529,534.677368 309.438202,534.748352 
	C310.003418,534.772034 310.568665,534.795654 311.772705,534.880615 
	C312.188232,534.804382 312.603760,534.728210 313.947083,534.772766 
	C386.297455,534.781372 458.647797,534.790771 530.998169,534.791626 
	C532.325867,534.791626 533.653625,534.689636 535.691406,534.850769 
	C538.800415,535.311462 540.164185,534.215027 539.288635,530.329956 
	C539.241394,529.885864 539.194092,529.441833 539.373413,528.220947 
	C539.400391,455.462189 539.430908,382.703400 539.426575,309.944641 
	C539.426453,308.657837 539.008118,307.371063 538.887085,305.395905 
	C538.867676,304.933533 538.848267,304.471161 539.196899,303.272095 
	C539.277405,302.114532 539.428223,300.956970 539.428406,299.799408 
	C539.438049,226.498886 539.437378,153.198349 539.419556,79.897827 
	C539.419189,78.463028 539.203247,77.028267 539.060242,75.249657 
	C462.829346,75.249657 387.046234,75.249657 310.431732,75.196350 
	C309.599457,75.183891 308.767151,75.171425 307.876465,75.199829 
	C307.876465,75.199829 307.825928,75.149544 307.172119,74.694855 
z"/>
<path fill="#D5C274" opacity="1.000000" stroke="none" 
	d="
M534.981323,534.635193 
	C533.653625,534.689636 532.325867,534.791626 530.998169,534.791626 
	C458.647797,534.790771 386.297455,534.781372 313.368469,534.332520 
	C312.507812,530.926758 311.981598,527.961426 311.979492,524.995667 
	C311.932495,458.842560 311.942535,392.689484 311.944794,326.536377 
	C311.944946,321.870728 312.057861,317.203064 311.952911,312.540070 
	C311.870483,308.876953 313.460785,307.655853 317.104004,307.662292 
	C385.755432,307.783752 454.406982,307.808685 523.058533,307.841095 
	C524.721558,307.841858 526.389221,307.751984 528.046997,307.612457 
	C537.346619,306.829712 538.126770,307.512329 538.127869,316.718872 
	C538.135803,384.871552 538.126892,453.024261 538.184265,521.176880 
	C538.186462,523.784119 538.811829,526.390808 539.146851,528.997742 
	C539.194092,529.441833 539.241394,529.885864 538.974487,530.866028 
	C537.434082,532.479797 536.207703,533.557495 534.981323,534.635193 
M316.270752,312.529755 
	C315.973511,315.159607 315.418549,317.789246 315.416656,320.419312 
	C315.367706,388.107819 315.365692,455.796326 315.431580,523.484802 
	C315.433380,525.347595 316.272491,527.209595 317.680817,529.212341 
	C388.352936,529.223022 459.025085,529.236694 529.697205,529.223938 
	C531.168579,529.223694 532.639893,528.917603 534.494324,528.081116 
	C534.672363,526.272400 535.005676,524.463684 535.006104,522.654907 
	C535.023438,454.410553 535.018127,386.166199 534.959778,317.921875 
	C534.958069,315.989014 534.346497,314.056641 533.107666,311.920197 
	C479.485687,311.902222 425.863678,311.872345 372.241699,311.872864 
	C353.759064,311.873016 335.276459,311.948914 316.270752,312.529755 
z"/>
<path fill="#264145" opacity="1.000000" stroke="none" 
	d="
M311.133881,534.819336 
	C310.568665,534.795654 310.003418,534.772034 308.976379,534.325745 
	C308.473053,532.237976 308.395264,530.572815 308.395203,528.907654 
	C308.392151,456.929596 308.396057,384.951538 308.399109,312.973480 
	C308.399200,310.876801 308.399109,308.780090 308.399109,306.655029 
	C231.963287,306.655029 156.235992,306.655029 80.045464,306.655029 
	C80.045464,308.995056 80.045441,310.960571 80.045464,312.926056 
	C80.046303,384.237671 80.048767,455.549286 80.040787,526.860901 
	C80.040527,529.189392 79.933769,531.517883 79.876663,533.846375 
	C79.282600,531.694092 78.172256,529.542603 78.169327,527.389465 
	C78.073883,457.233917 78.080338,387.078217 78.081406,316.922516 
	C78.082588,239.318024 78.083679,161.713531 78.148476,84.109100 
	C78.150337,81.878296 78.872124,79.648087 79.635910,77.659073 
	C80.021919,148.433182 80.027512,218.965805 80.045074,289.498444 
	C80.046188,293.987457 80.140305,298.476471 80.435928,303.297302 
	C83.335449,303.741638 85.990181,303.951904 88.644936,303.952393 
	C156.119690,303.964600 223.594452,303.959930 291.069214,303.938477 
	C296.061035,303.936890 301.052765,303.787109 306.469238,303.698364 
	C307.387054,301.779968 308.309631,299.869812 308.311279,297.958862 
	C308.373901,225.507721 308.354828,153.056488 308.324219,80.605270 
	C308.323456,78.789772 308.070312,76.974396 307.934875,75.158958 
	C308.767151,75.171425 309.599457,75.183891 310.777649,75.667267 
	C311.089172,150.895294 311.049835,225.652405 311.064087,300.409515 
	C311.064331,301.625580 311.719208,302.841492 312.049744,304.385010 
	C312.037598,305.149719 312.044281,305.586884 311.754272,306.326050 
	C311.307770,308.269623 311.027802,309.911163 311.027100,311.552826 
	C311.004791,364.831451 310.997955,418.110107 311.015564,471.388733 
	C311.022522,492.532257 311.092560,513.675781 311.133881,534.819336 
z"/>
<path fill="#B5B180" opacity="1.000000" stroke="none" 
	d="
M312.068573,304.057495 
	C311.719208,302.841492 311.064331,301.625580 311.064087,300.409515 
	C311.049835,225.652405 311.089172,150.895294 311.193329,75.693924 
	C387.046234,75.249657 462.829346,75.249657 539.060242,75.249657 
	C539.203247,77.028267 539.419189,78.463028 539.419556,79.897827 
	C539.437378,153.198349 539.438049,226.498886 539.428406,299.799408 
	C539.428223,300.956970 539.277405,302.114532 538.563721,303.596619 
	C479.964172,303.921143 421.997894,303.910950 364.031586,303.927490 
	C346.710571,303.932434 329.389587,304.012085 312.068573,304.057495 
M535.911926,301.746674 
	C536.635986,299.205933 537.988037,296.666260 537.992432,294.124237 
	C538.112427,224.793320 538.095642,155.462158 538.099548,86.131050 
	C538.100037,76.908119 538.094604,76.902802 529.001587,76.903107 
	C459.337128,76.905403 389.672699,76.910362 320.008240,76.913155 
	C311.995148,76.913475 311.983368,76.909660 311.982788,84.927383 
	C311.977753,154.258499 311.963348,223.589630 311.994659,292.920746 
	C311.998291,300.902740 310.402527,303.376343 321.557312,302.163605 
	C323.699066,301.930725 325.886902,302.117889 328.053497,302.117859 
	C393.218079,302.117065 458.382660,302.119751 523.547241,302.110382 
	C527.378479,302.109833 531.209778,302.013092 535.911926,301.746674 
z"/>
<path fill="#B8B380" opacity="1.000000" stroke="none" 
	d="
M80.000183,534.106384 
	C79.933769,531.517883 80.040527,529.189392 80.040787,526.860901 
	C80.048767,455.549286 80.046303,384.237671 80.045464,312.926056 
	C80.045441,310.960571 80.045464,308.995056 80.045464,306.655029 
	C156.235992,306.655029 231.963287,306.655029 308.399109,306.655029 
	C308.399109,308.780090 308.399200,310.876801 308.399109,312.973480 
	C308.396057,384.951538 308.392151,456.929596 308.395203,528.907654 
	C308.395264,530.572815 308.473053,532.237976 308.553558,534.290283 
	C308.592529,534.677368 308.180328,534.764343 307.561523,534.814880 
	C301.244659,534.768616 295.546631,534.671753 290.117554,534.312927 
	C293.321106,533.731689 296.250916,533.202026 299.191254,533.134949 
	C306.266510,532.973633 307.041290,532.383606 307.042938,525.457581 
	C307.059601,455.482758 307.057526,385.507965 307.035339,315.533142 
	C307.033142,308.609253 306.278076,307.930298 299.178436,307.929169 
	C229.703522,307.918121 160.228607,307.910950 90.753693,307.917206 
	C81.907196,307.917999 81.896179,307.956482 81.896233,316.650848 
	C81.896667,386.792267 81.898796,456.933655 81.916534,527.075073 
	C81.917168,529.570190 82.085968,532.065369 81.877892,534.654175 
	C81.169968,534.796997 80.760536,534.846191 80.351105,534.895386 
	C80.275314,534.718994 80.199509,534.542664 80.000183,534.106384 
z"/>
<path fill="#B1AD7F" opacity="1.000000" stroke="none" 
	d="
M311.453308,534.849976 
	C311.092560,513.675781 311.022522,492.532257 311.015564,471.388733 
	C310.997955,418.110107 311.004791,364.831451 311.027100,311.552826 
	C311.027802,309.911163 311.307770,308.269623 312.212646,306.395477 
	C363.927795,306.181519 414.887817,306.216736 465.847870,306.211365 
	C490.160217,306.208771 514.472534,306.129059 538.784912,306.084259 
	C539.008118,307.371063 539.426453,308.657837 539.426575,309.944641 
	C539.430908,382.703400 539.400391,455.462189 539.260132,528.609375 
	C538.811829,526.390808 538.186462,523.784119 538.184265,521.176880 
	C538.126892,453.024261 538.135803,384.871552 538.127869,316.718872 
	C538.126770,307.512329 537.346619,306.829712 528.046997,307.612457 
	C526.389221,307.751984 524.721558,307.841858 523.058533,307.841095 
	C454.406982,307.808685 385.755432,307.783752 317.104004,307.662292 
	C313.460785,307.655853 311.870483,308.876953 311.952911,312.540070 
	C312.057861,317.203064 311.944946,321.870728 311.944794,326.536377 
	C311.942535,392.689484 311.932495,458.842560 311.979492,524.995667 
	C311.981598,527.961426 312.507812,530.926758 312.904602,534.272217 
	C312.603760,534.728210 312.188232,534.804382 311.453308,534.849976 
z"/>
<path fill="#C4BA7D" opacity="1.000000" stroke="none" 
	d="
M307.905670,75.179398 
	C308.070312,76.974396 308.323456,78.789772 308.324219,80.605270 
	C308.354828,153.056488 308.373901,225.507721 308.311279,297.958862 
	C308.309631,299.869812 307.387054,301.779968 306.080658,303.556152 
	C303.281006,303.299957 301.294678,303.072723 299.308228,303.071777 
	C254.881943,303.050629 210.455627,303.071411 166.029358,303.047272 
	C137.744110,303.031891 109.458900,302.956848 81.211517,302.648438 
	C81.272469,302.214569 81.295586,302.040863 81.754463,301.901489 
	C150.325409,301.967773 218.460587,302.000244 286.595764,302.030884 
	C291.593445,302.033142 296.592865,301.940155 301.588226,302.045166 
	C305.369720,302.124664 307.086182,300.517090 306.987549,296.671600 
	C306.864624,291.879486 306.999512,287.081085 306.999725,282.285400 
	C307.002930,216.815109 307.010254,151.344818 306.991791,85.874519 
	C306.989471,77.685585 306.253113,76.990791 298.238007,76.990234 
	C227.769974,76.985336 157.301941,76.984947 86.833908,76.991730 
	C85.002861,76.991905 83.171822,77.088730 81.200684,76.927505 
	C80.844391,76.452499 80.628197,76.190468 80.412003,75.928429 
	C80.412003,75.928429 80.486580,75.524582 80.970535,75.431259 
	C153.754517,75.369171 226.054550,75.404007 298.354584,75.419510 
	C301.511658,75.420181 304.668823,75.243568 307.825928,75.149544 
	C307.825928,75.149544 307.876465,75.199829 307.905670,75.179398 
z"/>
<path fill="#1E3536" opacity="1.000000" stroke="none" 
	d="
M538.835999,305.740082 
	C514.472534,306.129059 490.160217,306.208771 465.847870,306.211365 
	C414.887817,306.216736 363.927795,306.181519 312.509338,306.093506 
	C312.044281,305.586884 312.037598,305.149719 312.049744,304.385010 
	C329.389587,304.012085 346.710571,303.932434 364.031586,303.927490 
	C421.997894,303.910950 479.964172,303.921143 538.379639,303.964966 
	C538.848267,304.471161 538.867676,304.933533 538.835999,305.740082 
z"/>
<path fill="#264145" opacity="1.000000" stroke="none" 
	d="
M289.848572,534.574890 
	C295.546631,534.671753 301.244659,534.768616 307.386353,534.931885 
	C305.725220,535.314026 303.620636,535.904297 301.515625,535.905701 
	C229.795837,535.953552 158.076035,535.950195 86.356232,535.919617 
	C84.556160,535.918823 82.756248,535.530090 80.653687,535.108765 
	C80.760536,534.846191 81.169968,534.796997 82.169411,534.712769 
	C83.560036,534.638184 84.360649,534.598755 85.369179,534.626831 
	C85.577095,534.694336 85.992012,534.556519 86.190414,534.597290 
	C86.388809,534.638062 86.781868,534.540100 87.183701,534.640625 
	C90.436737,534.687317 93.287926,534.633423 96.595589,534.637268 
	C149.498947,534.708374 201.945847,534.731934 254.392746,534.727539 
	C266.211365,534.726562 278.029968,534.628357 289.848572,534.574890 
z"/>
<path fill="#264145" opacity="1.000000" stroke="none" 
	d="
M307.499023,74.922195 
	C304.668823,75.243568 301.511658,75.420181 298.354584,75.419510 
	C226.054550,75.404007 153.754517,75.369171 81.050339,75.242065 
	C82.092659,74.784866 83.538902,74.108521 84.985641,74.107437 
	C157.247757,74.053421 229.509888,74.052567 301.772034,74.081459 
	C303.572113,74.082176 305.372101,74.481461 307.499023,74.922195 
z"/>
<path fill="#ACB394" opacity="1.000000" stroke="none" 
	d="
M81.318695,301.867157 
	C81.295586,302.040863 81.272469,302.214569 80.965302,302.666748 
	C80.681252,302.945160 80.191154,302.965485 80.191154,302.965485 
	C80.140305,298.476471 80.046188,293.987457 80.045074,289.498444 
	C80.027512,218.965805 80.021919,148.433182 79.938271,77.433998 
	C79.930603,76.782051 79.998253,76.596657 80.238953,76.169846 
	C80.628197,76.190468 80.844391,76.452499 81.140350,77.381279 
	C81.179482,90.030479 81.138847,102.012939 81.084557,114.247192 
	C81.073044,114.667076 81.075180,114.835167 81.071808,115.403236 
	C81.063141,116.869896 81.059998,117.936577 81.035599,119.460091 
	C81.033348,123.273804 81.052345,126.630692 81.071671,130.457001 
	C81.077141,183.619217 81.082275,236.312027 81.060616,289.402954 
	C81.050430,290.864716 81.067047,291.928345 81.078560,293.439575 
	C81.155197,296.547211 81.236946,299.207184 81.318695,301.867157 
z"/>
<path fill="#B1AD7F" opacity="1.000000" stroke="none" 
	d="
M535.336365,534.742981 
	C536.207703,533.557495 537.434082,532.479797 538.899597,531.194519 
	C540.164185,534.215027 538.800415,535.311462 535.336365,534.742981 
z"/>
<path fill="#1B353C" opacity="1.000000" stroke="none" 
	d="
M534.111328,528.754211 
	C532.639893,528.917603 531.168579,529.223694 529.697205,529.223938 
	C459.025085,529.236694 388.352936,529.223022 317.210754,528.671204 
	C316.758423,456.083466 316.776123,384.036835 316.793823,311.990234 
	C335.276459,311.948914 353.759064,311.873016 372.241699,311.872864 
	C425.863678,311.872345 479.485687,311.902222 533.555176,312.477051 
	C534.002258,345.991882 533.987610,378.949799 534.005249,411.907745 
	C534.026062,450.856567 534.074707,489.805389 534.111328,528.754211 
M317.942841,407.500000 
	C317.942902,445.315430 317.936920,483.130859 317.948456,520.946289 
	C317.950562,527.851379 318.124908,528.030090 324.892914,528.033264 
	C354.712128,528.047180 384.531372,528.039734 414.350586,528.039795 
	C451.333099,528.039856 488.315582,528.046631 525.298096,528.032959 
	C531.766113,528.030579 532.038025,527.741943 532.062439,521.257935 
	C532.090027,513.928101 532.069458,506.598175 532.069824,499.268311 
	C532.072998,439.963043 532.064148,380.657776 532.092957,321.352509 
	C532.097046,313.060150 532.182556,313.053711 523.904785,313.053467 
	C457.602814,313.051453 391.300842,313.049072 324.998871,313.056519 
	C318.131195,313.057312 317.953796,313.217865 317.949432,320.040924 
	C317.930939,348.860626 317.941528,377.680298 317.942841,407.500000 
z"/>
<path fill="#9C9B70" opacity="1.000000" stroke="none" 
	d="
M316.532288,312.260010 
	C316.776123,384.036835 316.758423,456.083466 316.730957,528.601013 
	C316.272491,527.209595 315.433380,525.347595 315.431580,523.484802 
	C315.365692,455.796326 315.367706,388.107819 315.416656,320.419312 
	C315.418549,317.789246 315.973511,315.159607 316.532288,312.260010 
z"/>
<path fill="#C1C19D" opacity="1.000000" stroke="none" 
	d="
M534.302856,528.417664 
	C534.074707,489.805389 534.026062,450.856567 534.005249,411.907745 
	C533.987610,378.949799 534.002258,345.991882 534.010986,312.578979 
	C534.346497,314.056641 534.958069,315.989014 534.959778,317.921875 
	C535.018127,386.166199 535.023438,454.410553 535.006104,522.654907 
	C535.005676,524.463684 534.672363,526.272400 534.302856,528.417664 
z"/>
<path fill="#97A088" opacity="1.000000" stroke="none" 
	d="
M80.435928,303.297302 
	C80.191154,302.965485 80.681252,302.945160 80.927460,302.926880 
	C109.458900,302.956848 137.744110,303.031891 166.029358,303.047272 
	C210.455627,303.071411 254.881943,303.050629 299.308228,303.071777 
	C301.294678,303.072723 303.281006,303.299957 305.655975,303.564026 
	C301.052765,303.787109 296.061035,303.936890 291.069214,303.938477 
	C223.594452,303.959930 156.119690,303.964600 88.644936,303.952393 
	C85.990181,303.951904 83.335449,303.741638 80.435928,303.297302 
z"/>
<path fill="#DAC470" opacity="1.000000" stroke="none" 
	d="
M535.476440,301.853882 
	C531.209778,302.013092 527.378479,302.109833 523.547241,302.110382 
	C458.382660,302.119751 393.218079,302.117065 328.053497,302.117859 
	C325.886902,302.117889 323.699066,301.930725 321.557312,302.163605 
	C310.402527,303.376343 311.998291,300.902740 311.994659,292.920746 
	C311.963348,223.589630 311.977753,154.258499 311.982788,84.927383 
	C311.983368,76.909660 311.995148,76.913475 320.008240,76.913155 
	C389.672699,76.910362 459.337128,76.905403 529.001587,76.903107 
	C538.094604,76.902802 538.100037,76.908119 538.099548,86.131050 
	C538.095642,155.462158 538.112427,224.793320 537.992432,294.124237 
	C537.988037,296.666260 536.635986,299.205933 535.476440,301.853882 
M534.477295,297.248016 
	C534.661682,295.439911 535.006470,293.631866 535.007385,291.823669 
	C535.042786,223.736450 535.054626,155.649231 535.016113,87.562035 
	C535.014893,85.453018 534.446655,83.344337 533.572876,80.920242 
	C533.369080,80.845406 533.165344,80.770561 532.215820,80.371605 
	C530.396118,80.238846 528.576416,79.990562 526.756653,79.990021 
	C458.971954,79.969749 391.187256,79.965012 323.402588,80.005905 
	C321.280029,80.007187 319.157837,80.511765 316.691620,81.048386 
	C316.691620,81.048386 316.300842,81.239769 315.813751,81.861656 
	C315.571198,83.655205 315.117493,85.448654 315.116547,87.242325 
	C315.080994,155.334564 315.077423,223.426834 315.132721,291.519043 
	C315.134430,293.610260 315.805939,295.700928 316.573517,298.132904 
	C316.694366,298.262665 316.815216,298.392426 317.443604,299.045074 
	C318.888184,299.327698 320.332642,299.856689 321.777405,299.857574 
	C390.752228,299.899414 459.727142,299.909698 528.701843,299.817841 
	C530.469055,299.815460 532.234680,298.636292 534.018005,297.949615 
	C534.018005,297.949615 534.076172,297.958649 534.477295,297.248016 
z"/>
<path fill="#DBC46F" opacity="1.000000" stroke="none" 
	d="
M85.161263,534.559326 
	C84.360649,534.598755 83.560036,534.638184 82.467903,534.619080 
	C82.085968,532.065369 81.917168,529.570190 81.916534,527.075073 
	C81.898796,456.933655 81.896667,386.792267 81.896233,316.650848 
	C81.896179,307.956482 81.907196,307.917999 90.753693,307.917206 
	C160.228607,307.910950 229.703522,307.918121 299.178436,307.929169 
	C306.278076,307.930298 307.033142,308.609253 307.035339,315.533142 
	C307.057526,385.507965 307.059601,455.482758 307.042938,525.457581 
	C307.041290,532.383606 306.266510,532.973633 299.191254,533.134949 
	C296.250916,533.202026 293.321106,533.731689 290.117554,534.312927 
	C278.029968,534.628357 266.211365,534.726562 254.392746,534.727539 
	C201.945847,534.731934 149.498947,534.708374 96.342445,534.377930 
	C92.682510,534.220703 89.732193,534.380432 86.781868,534.540100 
	C86.781868,534.540100 86.388809,534.638062 86.107033,534.487671 
	C85.539047,534.199402 85.317719,534.273376 85.161263,534.559326 
M302.852203,312.114319 
	C302.852203,312.114319 302.824860,311.955109 302.486633,311.322998 
	C300.426147,310.925507 298.365936,310.182373 296.305115,310.180573 
	C228.505173,310.121643 160.705154,310.131256 92.905167,310.138702 
	C84.401917,310.139648 84.129318,310.409027 84.128555,318.742645 
	C84.122330,386.875824 84.122810,455.009033 84.123703,523.142212 
	C84.123802,530.679871 84.169464,530.836731 92.016861,530.840576 
	C159.483704,530.873413 226.950577,530.871399 294.417358,530.799744 
	C296.277802,530.797729 298.137238,529.899170 300.766632,529.278442 
	C301.525635,529.117126 302.284668,528.955872 303.426208,528.116821 
	C303.597534,526.639221 303.915619,525.162048 303.919128,523.684021 
	C304.085693,453.973785 304.229431,384.263519 304.310455,314.553162 
	C304.311371,313.760437 303.457428,312.966736 302.852203,312.114319 
z"/>
<path fill="#DBC36E" opacity="1.000000" stroke="none" 
	d="
M81.087418,289.004822 
	C81.082275,236.312027 81.077141,183.619217 81.234787,130.097855 
	C81.283997,125.847282 81.170425,122.425270 81.056854,119.003265 
	C81.059998,117.936577 81.063141,116.869896 81.130081,115.283577 
	C81.267441,114.496010 81.235558,114.239830 81.098213,113.995399 
	C81.138847,102.012939 81.179482,90.030479 81.280441,77.594246 
	C83.171822,77.088730 85.002861,76.991905 86.833908,76.991730 
	C157.301941,76.984947 227.769974,76.985336 298.238007,76.990234 
	C306.253113,76.990791 306.989471,77.685585 306.991791,85.874519 
	C307.010254,151.344818 307.002930,216.815109 306.999725,282.285400 
	C306.999512,287.081085 306.864624,291.879486 306.987549,296.671600 
	C307.086182,300.517090 305.369720,302.124664 301.588226,302.045166 
	C296.592865,301.940155 291.593445,302.033142 286.595764,302.030884 
	C218.460587,302.000244 150.325409,301.967773 81.754463,301.901489 
	C81.236946,299.207184 81.155197,296.547211 81.223450,293.173340 
	C81.278107,291.307892 81.182762,290.156342 81.087418,289.004822 
M303.570618,297.561615 
	C303.682892,294.160065 303.892090,290.758514 303.893127,287.356934 
	C303.913452,221.110764 303.918793,154.864594 303.873779,88.618454 
	C303.872131,86.173508 303.329895,83.728920 302.497803,80.968445 
	C302.299713,80.901711 302.101654,80.834984 301.183990,80.417145 
	C299.366638,80.279549 297.549316,80.022194 295.731934,80.021645 
	C227.992569,80.001083 160.253204,79.996567 92.513870,80.039978 
	C90.400749,80.041336 88.287964,80.571823 85.984596,81.038094 
	C85.984596,81.038094 85.724960,81.084381 85.129570,81.461746 
	C84.809258,83.223625 84.210098,84.985313 84.208847,86.747421 
	C84.160103,155.274796 84.155563,223.802200 84.219345,292.329529 
	C84.221085,294.202789 85.035851,296.075287 85.810326,298.085602 
	C85.810326,298.085602 86.030716,298.377380 86.469452,298.936310 
	C88.075798,299.229095 89.681946,299.776764 91.288513,299.777985 
	C159.857773,299.830383 228.427094,299.848480 296.996277,299.771423 
	C298.950226,299.769226 300.902954,298.691956 302.871063,297.948761 
	C302.871063,297.948761 303.011749,297.857147 303.570618,297.561615 
z"/>
<path fill="#B8B380" opacity="1.000000" stroke="none" 
	d="
M87.183701,534.640625 
	C89.732193,534.380432 92.682510,534.220703 95.885979,534.320312 
	C93.287926,534.633423 90.436737,534.687317 87.183701,534.640625 
z"/>
<path fill="#B8B380" opacity="1.000000" stroke="none" 
	d="
M85.369179,534.626831 
	C85.317719,534.273376 85.539047,534.199402 85.908630,534.446899 
	C85.992012,534.556519 85.577095,534.694336 85.369179,534.626831 
z"/>
<path fill="#C4BA7D" opacity="1.000000" stroke="none" 
	d="
M81.035599,119.460091 
	C81.170425,122.425270 81.283997,125.847282 81.234451,129.628433 
	C81.052345,126.630692 81.033348,123.273804 81.035599,119.460091 
z"/>
<path fill="#C4BA7D" opacity="1.000000" stroke="none" 
	d="
M81.060616,289.402954 
	C81.182762,290.156342 81.278107,291.307892 81.228561,292.725677 
	C81.067047,291.928345 81.050430,290.864716 81.060616,289.402954 
z"/>
<path fill="#C4BA7D" opacity="1.000000" stroke="none" 
	d="
M81.084557,114.247192 
	C81.235558,114.239830 81.267441,114.496010 81.135605,114.883606 
	C81.075180,114.835167 81.073044,114.667076 81.084557,114.247192 
z"/>
<path fill="#083862" opacity="1.000000" stroke="none" 
	d="
M317.942139,407.000000 
	C317.941528,377.680298 317.930939,348.860626 317.949432,320.040924 
	C317.953796,313.217865 318.131195,313.057312 324.998871,313.056519 
	C391.300842,313.049072 457.602814,313.051453 523.904785,313.053467 
	C532.182556,313.053711 532.097046,313.060150 532.092957,321.352509 
	C532.064148,380.657776 532.072998,439.963043 532.069824,499.268311 
	C532.069458,506.598175 532.090027,513.928101 532.062439,521.257935 
	C532.038025,527.741943 531.766113,528.030579 525.298096,528.032959 
	C488.315582,528.046631 451.333099,528.039856 414.350586,528.039795 
	C384.531372,528.039734 354.712128,528.047180 324.892914,528.033264 
	C318.124908,528.030090 317.950562,527.851379 317.948456,520.946289 
	C317.936920,483.130859 317.942902,445.315430 317.942139,407.000000 
M418.113159,424.499969 
	C418.113159,446.916931 418.113159,469.333893 418.113159,491.865265 
	C423.147797,491.865265 427.516815,491.865265 431.951233,491.865265 
	C431.951233,444.088440 431.951233,396.732056 431.951233,349.264099 
	C427.237854,349.264099 422.872711,349.264099 418.113159,349.264099 
	C418.113159,374.281677 418.113159,398.890808 418.113159,424.499969 
z"/>
<path fill="#304644" opacity="1.000000" stroke="none" 
	d="
M316.936066,298.522186 
	C316.815216,298.392426 316.694366,298.262665 316.456848,297.520782 
	C316.375763,235.667526 316.419189,174.426392 316.439636,113.185265 
	C316.443176,102.536781 316.349579,91.888268 316.300842,81.239769 
	C316.300842,81.239769 316.691620,81.048386 317.326904,80.958969 
	C388.469025,80.879974 458.975922,80.891380 529.482788,80.892273 
	C530.642395,80.892288 531.801941,80.764091 532.961548,80.695717 
	C533.165344,80.770561 533.369080,80.845406 533.825195,81.520096 
	C534.077026,154.066177 534.076599,226.012421 534.076172,297.958649 
	C534.076172,297.958649 534.018005,297.949615 533.548767,298.070923 
	C464.354614,298.217834 395.629730,298.239990 326.904816,298.279694 
	C323.581879,298.281616 320.258972,298.437805 316.936066,298.522186 
M325.613831,81.911896 
	C317.902039,81.986679 317.883301,81.986679 317.882477,89.741356 
	C317.875397,156.051147 317.873199,222.360947 317.876923,288.670746 
	C317.877380,297.036835 317.897064,297.047394 326.090424,297.047760 
	C392.067047,297.050629 458.043640,297.049347 524.020264,297.048309 
	C525.186462,297.048279 526.354736,296.988037 527.518494,297.038025 
	C531.609192,297.213501 533.234253,295.380005 532.810791,291.244415 
	C532.370972,286.950073 532.165771,282.613525 532.163086,278.295227 
	C532.123962,215.484207 532.138000,152.673141 532.133545,89.862091 
	C532.132935,81.922966 532.117859,81.913795 524.012512,81.913452 
	C458.202515,81.910637 392.392548,81.911530 325.613831,81.911896 
z"/>
<path fill="#B5B180" opacity="1.000000" stroke="none" 
	d="
M317.189819,298.783630 
	C320.258972,298.437805 323.581879,298.281616 326.904816,298.279694 
	C395.629730,298.239990 464.354614,298.217834 533.540283,298.099121 
	C532.234680,298.636292 530.469055,299.815460 528.701843,299.817841 
	C459.727142,299.909698 390.752228,299.899414 321.777405,299.857574 
	C320.332642,299.856689 318.888184,299.327698 317.189819,298.783630 
z"/>
<path fill="#C1C19D" opacity="1.000000" stroke="none" 
	d="
M534.276733,297.603333 
	C534.076599,226.012421 534.077026,154.066177 534.110107,81.677719 
	C534.446655,83.344337 535.014893,85.453018 535.016113,87.562035 
	C535.054626,155.649231 535.042786,223.736450 535.007385,291.823669 
	C535.006470,293.631866 534.661682,295.439911 534.276733,297.603333 
z"/>
<path fill="#B5B180" opacity="1.000000" stroke="none" 
	d="
M316.057312,81.550713 
	C316.349579,91.888268 316.443176,102.536781 316.439636,113.185265 
	C316.419189,174.426392 316.375763,235.667526 316.252655,297.350281 
	C315.805939,295.700928 315.134430,293.610260 315.132721,291.519043 
	C315.077423,223.426834 315.080994,155.334564 315.116547,87.242325 
	C315.117493,85.448654 315.571198,83.655205 316.057312,81.550713 
z"/>
<path fill="#B5B180" opacity="1.000000" stroke="none" 
	d="
M532.588684,80.533661 
	C531.801941,80.764091 530.642395,80.892288 529.482788,80.892273 
	C458.975922,80.891380 388.469025,80.879974 317.498810,80.825623 
	C319.157837,80.511765 321.280029,80.007187 323.402588,80.005905 
	C391.187256,79.965012 458.971954,79.969749 526.756653,79.990021 
	C528.576416,79.990562 530.396118,80.238846 532.588684,80.533661 
z"/>
<path fill="#083862" opacity="1.000000" stroke="none" 
	d="
M303.043671,528.794556 
	C302.284668,528.955872 301.525635,529.117126 299.930115,529.232910 
	C228.171021,529.187439 157.248474,529.187439 86.083679,529.187439 
	C86.083679,456.447083 86.083679,384.435242 86.083679,311.955109 
	C158.604935,311.955109 230.714890,311.955109 302.824860,311.955109 
	C302.824860,311.955109 302.852203,312.114319 302.899719,312.593506 
	C302.945892,335.377655 302.933685,357.682678 302.945526,379.987671 
	C302.971863,429.589966 303.010193,479.192261 303.043671,528.794556 
M159.146881,348.927155 
	C154.876221,348.927155 150.605545,348.927155 146.193848,348.927155 
	C146.193848,396.936829 146.193848,444.415894 146.193848,491.713104 
	C146.728073,491.961365 146.873413,492.087891 147.019073,492.088257 
	C177.969299,492.165039 208.919556,492.253540 239.869598,492.200439 
	C240.784393,492.198883 241.696640,490.705994 242.776779,489.177155 
	C242.723297,488.683105 242.669815,488.189026 242.800659,486.906281 
	C242.201950,484.490540 241.603256,482.074799 240.254715,479.311951 
	C238.102448,479.169556 235.950333,478.906525 233.797867,478.903442 
	C212.303589,478.872559 190.809265,478.889221 169.314941,478.882080 
	C161.049469,478.879333 161.043182,478.867218 161.042755,470.482361 
	C161.040848,432.325775 161.059784,394.169159 161.000626,356.012665 
	C160.997116,353.748444 160.377686,351.485168 159.146881,348.927155 
z"/>
<path fill="#B2AE7E" opacity="1.000000" stroke="none" 
	d="
M302.655762,311.639038 
	C230.714890,311.955109 158.604935,311.955109 86.083679,311.955109 
	C86.083679,384.435242 86.083679,456.447083 86.083679,529.187439 
	C157.248474,529.187439 228.171021,529.187439 299.545349,529.303101 
	C298.137238,529.899170 296.277802,530.797729 294.417358,530.799744 
	C226.950577,530.871399 159.483704,530.873413 92.016861,530.840576 
	C84.169464,530.836731 84.123802,530.679871 84.123703,523.142212 
	C84.122810,455.009033 84.122330,386.875824 84.128555,318.742645 
	C84.129318,310.409027 84.401917,310.139648 92.905167,310.138702 
	C160.705154,310.131256 228.505173,310.121643 296.305115,310.180573 
	C298.365936,310.182373 300.426147,310.925507 302.655762,311.639038 
z"/>
<path fill="#B2AE7E" opacity="1.000000" stroke="none" 
	d="
M303.234924,528.455688 
	C303.010193,479.192261 302.971863,429.589966 302.945526,379.987671 
	C302.933685,357.682678 302.945892,335.377655 302.974915,312.623047 
	C303.457428,312.966736 304.311371,313.760437 304.310455,314.553162 
	C304.229431,384.263519 304.085693,453.973785 303.919128,523.684021 
	C303.915619,525.162048 303.597534,526.639221 303.234924,528.455688 
z"/>
<path fill="#093861" opacity="1.000000" stroke="none" 
	d="
M301.903595,80.768257 
	C302.101654,80.834984 302.299713,80.901711 302.722046,81.561768 
	C302.968079,154.055786 302.989929,225.956467 303.011749,297.857147 
	C303.011749,297.857147 302.871063,297.948761 302.412048,298.036133 
	C231.972763,298.130127 161.992462,298.134827 92.012161,298.153198 
	C90.018333,298.153717 88.024529,298.299377 86.030716,298.377380 
	C86.030716,298.377380 85.810326,298.085602 85.721451,297.567993 
	C85.663368,225.061722 85.694160,153.073044 85.724960,81.084381 
	C85.724960,81.084381 85.984596,81.038094 86.522552,81.008301 
	C157.515549,80.989456 227.970566,81.001572 298.425598,81.001221 
	C299.584930,81.001213 300.744263,80.849289 301.903595,80.768257 
M175.196747,155.867691 
	C175.196747,155.867691 175.237747,155.769211 175.236649,156.356628 
	C175.511551,156.853714 175.786453,157.350815 176.155914,157.884964 
	C176.155914,157.884964 176.119965,157.979950 176.065872,158.689514 
	C176.750290,160.077057 177.434692,161.464600 178.174347,162.870148 
	C178.174347,162.870148 178.153214,162.924255 178.123764,163.585556 
	C178.553909,164.334106 178.984055,165.082657 179.313156,165.802567 
	C179.313156,165.802567 179.344070,165.702194 179.315781,166.387009 
	C179.888138,167.577362 180.460495,168.767715 181.015259,169.978500 
	C181.015259,169.978500 181.040314,169.979309 180.997116,170.757782 
	C181.768448,175.335678 182.539795,179.913589 183.246109,184.844513 
	C183.246109,184.844513 183.028366,185.129883 182.683640,185.593765 
	C182.583710,186.160797 182.483795,186.727829 182.357727,187.224045 
	C182.357727,187.224045 182.429443,187.200424 181.902924,187.636581 
	C181.655930,188.259201 181.408951,188.881821 181.175385,189.769897 
	C181.175385,189.769897 181.006668,189.975311 180.655853,190.467682 
	C180.530411,191.041199 180.404953,191.614731 180.177887,192.645477 
	C180.177887,192.645477 179.918823,193.035675 179.338867,193.361313 
	C179.005173,194.358948 178.671478,195.356598 178.248459,196.781998 
	C178.248459,196.781998 178.015350,197.151611 177.635269,197.624847 
	C177.481445,198.208679 177.327637,198.792511 177.126480,199.713867 
	C177.126480,199.713867 176.922287,199.986771 176.606232,200.377136 
	C176.510590,200.694992 176.414948,201.012848 176.299042,201.216629 
	C176.299042,201.216629 176.413513,201.198715 175.904938,201.650726 
	C175.684509,202.279343 175.464081,202.907959 175.227554,203.812790 
	C175.227554,203.812790 175.042358,204.018356 174.491287,204.476074 
	C174.087128,205.803345 173.682968,207.130615 173.241150,208.770523 
	C173.241150,208.770523 173.045639,209.017365 172.519608,209.460587 
	C172.121948,210.732727 171.724289,212.004852 171.296829,213.189911 
	C171.296829,213.189911 171.384628,213.162277 170.902130,213.611984 
	C170.696640,214.218231 170.491150,214.824493 170.238235,215.764374 
	C170.238235,215.764374 170.031525,216.030487 169.650574,216.497391 
	C169.510910,217.075958 169.371262,217.654541 169.176422,218.114532 
	C169.176422,218.114532 169.295578,218.060577 168.852402,218.553238 
	C168.664490,219.169495 168.476578,219.785736 168.220139,220.740967 
	C168.220139,220.740967 168.004318,221.011185 167.401794,221.359818 
	C167.046631,222.667618 166.691467,223.975403 166.133652,224.986649 
	C166.133652,224.986649 166.350067,225.278000 165.671402,225.492111 
	C165.095734,227.287384 164.520065,229.082642 163.980972,230.934723 
	C163.980972,230.934723 163.920273,230.964355 163.342682,231.322083 
	C163.009979,232.350632 162.677277,233.379196 162.244431,234.799545 
	C162.244431,234.799545 162.003464,235.124283 161.449600,235.509415 
	C160.752396,237.436218 160.055191,239.363022 159.129578,241.280670 
	C159.129578,241.280670 159.356033,241.318741 158.510101,241.278717 
	C157.947296,241.267578 157.384491,241.256439 156.255966,240.754303 
	C155.983490,239.818787 155.794113,238.849152 155.426270,237.952774 
	C147.979797,219.806854 140.508789,201.671021 133.051086,183.529694 
	C124.580559,162.924637 116.159065,142.299149 107.569550,121.743835 
	C106.931335,120.216553 105.225494,118.264931 103.822067,118.092926 
	C99.794067,117.599304 95.666397,117.918961 90.929695,117.918961 
	C92.788612,122.324211 94.325005,125.969887 95.865044,129.614014 
	C113.860497,172.195999 131.880661,214.767578 149.797134,257.382782 
	C150.972977,260.179535 152.291122,261.919739 155.556824,261.321106 
	C159.098434,260.671875 163.326385,263.162506 165.575012,257.586639 
	C171.783463,242.191589 178.518356,227.008606 185.063766,211.749771 
	C187.921219,205.088409 190.824188,198.446564 194.135071,190.806915 
	C195.375336,193.476913 196.165237,195.051331 196.849823,196.670273 
	C205.332260,216.729797 213.775665,236.805923 222.315872,256.840790 
	C222.991074,258.424805 224.002335,260.449036 225.385254,261.046082 
	C231.127655,263.525238 237.202835,260.758392 239.629486,255.024551 
	C255.163010,218.320770 270.707886,181.621780 286.240509,144.917618 
	C289.963165,136.120941 293.653748,127.310669 297.600372,117.933334 
	C292.936951,117.933334 289.094666,117.654007 285.329193,118.070045 
	C283.811035,118.237785 281.704590,119.615677 281.145355,120.970833 
	C267.589020,153.821579 254.218918,186.749146 240.782104,219.649323 
	C237.502182,227.680206 234.105728,235.663498 230.613449,244.026398 
	C229.929352,243.109406 229.543411,242.756866 229.357635,242.319336 
	C220.842285,222.264084 212.311020,202.215363 203.920837,182.107788 
	C203.370224,180.788208 203.471603,178.833710 204.017960,177.475525 
	C209.408310,164.075775 214.984421,150.750916 220.448303,137.380478 
	C222.866150,131.463852 225.147659,125.491493 227.735291,118.924667 
	C224.761078,118.924667 222.578293,119.201958 220.493057,118.868752 
	C215.688583,118.101021 213.557098,120.220833 211.918457,124.655075 
	C207.317581,137.105240 202.183014,149.358521 197.232681,161.678894 
	C196.345551,163.886734 195.332993,166.044189 193.889725,169.341141 
	C186.883438,151.805374 180.366287,135.493835 173.522980,118.365967 
	C169.307022,118.986870 165.072220,119.610542 160.579391,120.790512 
	C162.746765,125.853386 164.914124,130.916260 167.266922,136.155304 
	C167.266922,136.155304 167.279663,136.410736 167.227280,137.159149 
	C167.860046,138.407547 168.492813,139.655930 168.999084,140.988419 
	C168.999084,140.988419 169.122635,140.896759 169.107239,141.560776 
	C169.548340,142.290466 169.989426,143.020172 170.305969,143.798431 
	C170.305969,143.798431 170.398499,143.701935 170.276291,144.427124 
	C170.866913,145.604950 171.457535,146.782791 172.254837,148.178864 
	C172.254837,148.178864 172.292282,148.477097 172.325607,149.152328 
	C172.626984,149.750397 172.928360,150.348450 173.137817,150.900864 
	C173.137817,150.900864 173.184418,150.809433 173.189865,151.406372 
	C173.470291,151.918121 173.750702,152.429886 174.249466,153.203995 
	C174.249466,153.203995 174.314987,153.538971 174.349380,154.195816 
	C174.664856,154.766312 174.980331,155.336823 175.196747,155.867691 
z"/>
<path fill="#ACAB7F" opacity="1.000000" stroke="none" 
	d="
M85.427261,81.273064 
	C85.694160,153.073044 85.663368,225.061722 85.552032,297.499268 
	C85.035851,296.075287 84.221085,294.202789 84.219345,292.329529 
	C84.155563,223.802200 84.160103,155.274796 84.208847,86.747421 
	C84.210098,84.985313 84.809258,83.223625 85.427261,81.273064 
z"/>
<path fill="#ACAB7F" opacity="1.000000" stroke="none" 
	d="
M86.250084,298.656860 
	C88.024529,298.299377 90.018333,298.153717 92.012161,298.153198 
	C161.992462,298.134827 231.972763,298.130127 302.404663,298.119751 
	C300.902954,298.691956 298.950226,299.769226 296.996277,299.771423 
	C228.427094,299.848480 159.857773,299.830383 91.288513,299.777985 
	C89.681946,299.776764 88.075798,299.229095 86.250084,298.656860 
z"/>
<path fill="#ACAB7F" opacity="1.000000" stroke="none" 
	d="
M303.291199,297.709381 
	C302.989929,225.956467 302.968079,154.055786 302.992920,81.719635 
	C303.329895,83.728920 303.872131,86.173508 303.873779,88.618454 
	C303.918793,154.864594 303.913452,221.110764 303.893127,287.356934 
	C303.892090,290.758514 303.682892,294.160065 303.291199,297.709381 
z"/>
<path fill="#ACAB7F" opacity="1.000000" stroke="none" 
	d="
M301.543793,80.592697 
	C300.744263,80.849289 299.584930,81.001213 298.425598,81.001221 
	C227.970566,81.001572 157.515549,80.989456 86.617767,80.917068 
	C88.287964,80.571823 90.400749,80.041336 92.513870,80.039978 
	C160.253204,79.996567 227.992569,80.001083 295.731934,80.021645 
	C297.549316,80.022194 299.366638,80.279549 301.543793,80.592697 
z"/>
<path fill="#D7C274" opacity="1.000000" stroke="none" 
	d="
M418.113159,423.999939 
	C418.113159,398.890808 418.113159,374.281677 418.113159,349.264099 
	C422.872711,349.264099 427.237854,349.264099 431.951233,349.264099 
	C431.951233,396.732056 431.951233,444.088440 431.951233,491.865265 
	C427.516815,491.865265 423.147797,491.865265 418.113159,491.865265 
	C418.113159,469.333893 418.113159,446.916931 418.113159,423.999939 
z"/>
<path fill="#083862" opacity="1.000000" stroke="none" 
	d="
M326.098206,81.911591 
	C392.392548,81.911530 458.202515,81.910637 524.012512,81.913452 
	C532.117859,81.913795 532.132935,81.922966 532.133545,89.862091 
	C532.138000,152.673141 532.123962,215.484207 532.163086,278.295227 
	C532.165771,282.613525 532.370972,286.950073 532.810791,291.244415 
	C533.234253,295.380005 531.609192,297.213501 527.518494,297.038025 
	C526.354736,296.988037 525.186462,297.048279 524.020264,297.048309 
	C458.043640,297.049347 392.067047,297.050629 326.090424,297.047760 
	C317.897064,297.047394 317.877380,297.036835 317.876923,288.670746 
	C317.873199,222.360947 317.875397,156.051147 317.882477,89.741356 
	C317.883301,81.986679 317.902039,81.986679 326.098206,81.911591 
M435.499695,216.544937 
	C441.331848,216.550797 447.172150,216.744049 452.993011,216.490524 
	C456.353363,216.344162 458.023926,217.516617 459.282776,220.655594 
	C464.295685,233.155640 469.561523,245.554901 474.825592,257.952454 
	C475.349884,259.187256 476.431305,261.027710 477.369507,261.100494 
	C481.713470,261.437500 486.098145,261.249451 490.701630,261.249451 
	C490.352386,259.997162 490.295471,259.662842 490.168884,259.357391 
	C471.070404,213.272781 451.920349,167.209412 432.951080,121.071709 
	C431.418549,117.344292 428.811127,117.781784 426.095734,117.953423 
	C423.084808,118.143745 419.812866,116.655975 417.910065,121.268059 
	C401.798096,160.320648 385.402130,199.256042 369.100067,238.230255 
	C365.991272,245.662643 362.920990,253.111145 359.514984,261.318390 
	C363.392883,261.318390 366.389526,261.006531 369.293579,261.392151 
	C373.555725,261.958069 375.421722,259.999481 376.873627,256.265839 
	C381.511749,244.338638 386.561279,232.571625 391.220886,220.652420 
	C392.451721,217.503952 394.147186,216.432449 397.508606,216.484222 
	C409.836334,216.674026 422.168884,216.550430 435.499695,216.544937 
z"/>
<path fill="#DCC36F" opacity="1.000000" stroke="none" 
	d="
M242.616333,487.694977 
	C242.669815,488.189026 242.723297,488.683105 242.312836,489.653625 
	C239.550934,490.417267 237.253540,490.949036 234.954971,490.954254 
	C208.139679,491.015045 181.324188,491.007812 154.508759,490.991486 
	C147.438126,490.987183 147.050217,490.623749 147.046158,483.732605 
	C147.021240,441.427521 147.018097,399.122437 147.025864,356.817352 
	C147.027069,350.288269 147.876831,349.707458 154.197845,349.947327 
	C159.336365,350.142303 158.899887,353.615479 158.900864,356.970673 
	C158.912094,395.611542 158.902588,434.252411 158.922012,472.893280 
	C158.926102,481.019867 158.969879,481.033783 166.900223,481.036682 
	C189.218658,481.044830 211.537964,481.144836 233.854889,480.961487 
	C238.906387,480.919983 242.355576,481.975403 242.616333,487.694977 
z"/>
<path fill="#C7C595" opacity="1.000000" stroke="none" 
	d="
M242.708496,487.300629 
	C242.355576,481.975403 238.906387,480.919983 233.854889,480.961487 
	C211.537964,481.144836 189.218658,481.044830 166.900223,481.036682 
	C158.969879,481.033783 158.926102,481.019867 158.922012,472.893280 
	C158.902588,434.252411 158.912094,395.611542 158.900864,356.970673 
	C158.899887,353.615479 159.336365,350.142303 154.197845,349.947327 
	C147.876831,349.707458 147.027069,350.288269 147.025864,356.817352 
	C147.018097,399.122437 147.021240,441.427521 147.046158,483.732605 
	C147.050217,490.623749 147.438126,490.987183 154.508759,490.991486 
	C181.324188,491.007812 208.139679,491.015045 234.954971,490.954254 
	C237.253540,490.949036 239.550934,490.417267 242.229477,490.019287 
	C241.696640,490.705994 240.784393,492.198883 239.869598,492.200439 
	C208.919556,492.253540 177.969299,492.165039 147.019073,492.088257 
	C146.873413,492.087891 146.728073,491.961365 146.193848,491.713104 
	C146.193848,444.415894 146.193848,396.936829 146.193848,348.927155 
	C150.605545,348.927155 154.876221,348.927155 159.556854,349.518921 
	C159.966843,393.256042 159.966843,436.401398 159.966843,479.659058 
	C187.515015,479.659058 214.259781,479.659058 241.004547,479.659058 
	C241.603256,482.074799 242.201950,484.490540 242.708496,487.300629 
z"/>
<path fill="#304238" opacity="1.000000" stroke="none" 
	d="
M240.629639,479.485504 
	C214.259781,479.659058 187.515015,479.659058 159.966843,479.659058 
	C159.966843,436.401398 159.966843,393.256042 160.005859,349.666077 
	C160.377686,351.485168 160.997116,353.748444 161.000626,356.012665 
	C161.059784,394.169159 161.040848,432.325775 161.042755,470.482361 
	C161.043182,478.867218 161.049469,478.879333 169.314941,478.882080 
	C190.809265,478.889221 212.303589,478.872559 233.797867,478.903442 
	C235.950333,478.906525 238.102448,479.169556 240.629639,479.485504 
z"/>
<path fill="#D6C172" opacity="1.000000" stroke="none" 
	d="
M176.922272,199.986771 
	C176.922287,199.986771 177.126480,199.713867 177.398193,199.344299 
	C177.785049,198.367035 177.900192,197.759323 178.015350,197.151611 
	C178.015350,197.151611 178.248459,196.781998 178.522949,196.360657 
	C179.171234,194.971436 179.545029,194.003555 179.918823,193.035675 
	C179.918823,193.035675 180.177887,192.645477 180.448700,192.209900 
	C180.815231,191.174637 180.910950,190.574982 181.006668,189.975311 
	C181.006668,189.975311 181.175385,189.769897 181.431046,189.422394 
	C181.934296,188.450073 182.181870,187.825256 182.429443,187.200424 
	C182.429443,187.200424 182.357727,187.224045 182.585785,187.048767 
	C182.885345,186.292297 182.956848,185.711090 183.028366,185.129883 
	C183.028366,185.129883 183.246109,184.844513 183.540833,184.385345 
	C187.039627,178.448318 182.817780,174.458771 181.040314,169.979309 
	C181.040314,169.979309 181.015259,169.978500 181.026520,169.632950 
	C180.473206,168.092331 179.908646,166.897263 179.344070,165.702194 
	C179.344070,165.702194 179.313156,165.802567 179.329071,165.486862 
	C178.947708,164.422195 178.550461,163.673233 178.153214,162.924255 
	C178.153214,162.924255 178.174347,162.870148 178.140747,162.523193 
	C177.444763,160.777466 176.782364,159.378708 176.119965,157.979950 
	C176.119965,157.979950 176.155914,157.884964 176.111053,157.576370 
	C175.790024,156.768265 175.513885,156.268738 175.237747,155.769211 
	C175.237747,155.769211 175.196747,155.867691 175.236115,155.549713 
	C174.955338,154.667480 174.635162,154.103226 174.314987,153.538971 
	C174.314987,153.538971 174.249466,153.203995 174.150146,152.772766 
	C173.762009,151.830826 173.473206,151.320129 173.184418,150.809433 
	C173.184418,150.809433 173.137817,150.900864 173.188599,150.575485 
	C172.923660,149.659103 172.607971,149.068100 172.292282,148.477097 
	C172.292282,148.477097 172.254837,148.178864 172.152618,147.735565 
	C171.499756,146.095505 170.949127,144.898712 170.398499,143.701935 
	C170.398499,143.701935 170.305969,143.798431 170.323135,143.453217 
	C169.934418,142.370926 169.528534,141.633835 169.122635,140.896759 
	C169.122635,140.896759 168.999084,140.988419 169.053528,140.592712 
	C168.498550,138.934906 167.889099,137.672821 167.279663,136.410736 
	C167.279663,136.410736 167.266922,136.155304 167.156891,135.689270 
	C164.977051,130.226883 162.907242,125.230560 160.837433,120.234222 
	C165.072220,119.610542 169.307022,118.986870 173.522980,118.365967 
	C180.366287,135.493835 186.883438,151.805374 193.889725,169.341141 
	C195.332993,166.044189 196.345551,163.886734 197.232681,161.678894 
	C202.183014,149.358521 207.317581,137.105240 211.918457,124.655075 
	C213.557098,120.220833 215.688583,118.101021 220.493057,118.868752 
	C222.578293,119.201958 224.761078,118.924667 227.735291,118.924667 
	C225.147659,125.491493 222.866150,131.463852 220.448303,137.380478 
	C214.984421,150.750916 209.408310,164.075775 204.017960,177.475525 
	C203.471603,178.833710 203.370224,180.788208 203.920837,182.107788 
	C212.311020,202.215363 220.842285,222.264084 229.357635,242.319336 
	C229.543411,242.756866 229.929352,243.109406 230.613449,244.026398 
	C234.105728,235.663498 237.502182,227.680206 240.782104,219.649323 
	C254.218918,186.749146 267.589020,153.821579 281.145355,120.970833 
	C281.704590,119.615677 283.811035,118.237785 285.329193,118.070045 
	C289.094666,117.654007 292.936951,117.933334 297.600372,117.933334 
	C293.653748,127.310669 289.963165,136.120941 286.240509,144.917618 
	C270.707886,181.621780 255.163010,218.320770 239.629486,255.024551 
	C237.202835,260.758392 231.127655,263.525238 225.385254,261.046082 
	C224.002335,260.449036 222.991074,258.424805 222.315872,256.840790 
	C213.775665,236.805923 205.332260,216.729797 196.849823,196.670273 
	C196.165237,195.051331 195.375336,193.476913 194.135071,190.806915 
	C190.824188,198.446564 187.921219,205.088409 185.063766,211.749771 
	C178.518356,227.008606 171.783463,242.191589 165.575012,257.586639 
	C163.326385,263.162506 159.098434,260.671875 155.556824,261.321106 
	C152.291122,261.919739 150.972977,260.179535 149.797134,257.382782 
	C131.880661,214.767578 113.860497,172.195999 95.865044,129.614014 
	C94.325005,125.969887 92.788612,122.324211 90.929695,117.918961 
	C95.666397,117.918961 99.794067,117.599304 103.822067,118.092926 
	C105.225494,118.264931 106.931335,120.216553 107.569550,121.743835 
	C116.159065,142.299149 124.580559,162.924637 133.051086,183.529694 
	C140.508789,201.671021 147.979797,219.806854 155.426270,237.952774 
	C155.794113,238.849152 155.983490,239.818787 156.571747,241.330872 
	C157.344193,242.529343 157.800842,243.151245 158.257507,243.773148 
	C158.623688,242.955017 158.989868,242.136887 159.356049,241.318741 
	C159.356033,241.318741 159.129578,241.280670 159.505066,241.062500 
	C160.588181,238.937653 161.295822,237.030975 162.003464,235.124283 
	C162.003464,235.124283 162.244431,234.799545 162.531723,234.388412 
	C163.186096,232.972961 163.553177,231.968658 163.920258,230.964355 
	C163.920273,230.964355 163.980972,230.934723 164.196259,230.661758 
	C165.057724,228.685196 165.703888,226.981598 166.350067,225.278000 
	C166.350067,225.278000 166.133652,224.986649 166.471710,224.896347 
	C167.207962,223.541092 167.606140,222.276138 168.004318,221.011185 
	C168.004318,221.011185 168.220139,220.740967 168.493179,220.349945 
	C168.942673,219.326141 169.119125,218.693359 169.295578,218.060577 
	C169.295578,218.060577 169.176422,218.114532 169.452301,217.980621 
	C169.829300,217.241318 169.930420,216.635895 170.031525,216.030487 
	C170.031525,216.030487 170.238235,215.764374 170.498932,215.380920 
	C170.967957,214.385727 171.176300,213.774002 171.384644,213.162277 
	C171.384628,213.162277 171.296829,213.189911 171.560486,213.003983 
	C172.231308,211.551163 172.638474,210.284256 173.045639,209.017365 
	C173.045639,209.017365 173.241150,208.770523 173.514618,208.373474 
	C174.206161,206.657074 174.624268,205.337708 175.042358,204.018356 
	C175.042358,204.018356 175.227554,203.812790 175.492767,203.456116 
	C175.976501,202.465851 176.195007,201.832291 176.413513,201.198715 
	C176.413513,201.198715 176.299042,201.216629 176.519089,201.111862 
	C176.800186,200.666992 176.861237,200.326874 176.922272,199.986771 
z"/>
<path fill="#2F4949" opacity="1.000000" stroke="none" 
	d="
M160.708405,120.512367 
	C162.907242,125.230560 164.977051,130.226883 167.064178,135.601181 
	C164.914124,130.916260 162.746765,125.853386 160.708405,120.512367 
z"/>
<path fill="#2F4949" opacity="1.000000" stroke="none" 
	d="
M181.018707,170.368546 
	C182.817780,174.458771 187.039627,178.448318 183.573334,184.208832 
	C182.539795,179.913589 181.768448,175.335678 181.018707,170.368546 
z"/>
<path fill="#2F4949" opacity="1.000000" stroke="none" 
	d="
M161.726532,235.316849 
	C161.295822,237.030975 160.588181,238.937653 159.619263,241.067078 
	C160.055191,239.363022 160.752396,237.436218 161.726532,235.316849 
z"/>
<path fill="#2F4949" opacity="1.000000" stroke="none" 
	d="
M166.010727,225.385056 
	C165.703888,226.981598 165.057724,228.685196 164.177979,230.633362 
	C164.520065,229.082642 165.095734,227.287384 166.010727,225.385056 
z"/>
<path fill="#2F4949" opacity="1.000000" stroke="none" 
	d="
M176.092926,158.334732 
	C176.782364,159.378708 177.444763,160.777466 178.113129,162.514191 
	C177.434692,161.464600 176.750290,160.077057 176.092926,158.334732 
z"/>
<path fill="#2F4949" opacity="1.000000" stroke="none" 
	d="
M170.337402,144.064529 
	C170.949127,144.898712 171.499756,146.095505 172.049271,147.626450 
	C171.457535,146.782791 170.866913,145.604950 170.337402,144.064529 
z"/>
<path fill="#2F4949" opacity="1.000000" stroke="none" 
	d="
M172.782623,209.238983 
	C172.638474,210.284256 172.231308,211.551163 171.575378,213.047516 
	C171.724289,212.004852 172.121948,210.732727 172.782623,209.238983 
z"/>
<path fill="#2F4949" opacity="1.000000" stroke="none" 
	d="
M174.766815,204.247223 
	C174.624268,205.337708 174.206161,206.657074 173.533447,208.217163 
	C173.682968,207.130615 174.087128,205.803345 174.766815,204.247223 
z"/>
<path fill="#2F4949" opacity="1.000000" stroke="none" 
	d="
M167.703064,221.185501 
	C167.606140,222.276138 167.207962,223.541092 166.573044,225.044617 
	C166.691467,223.975403 167.046631,222.667618 167.703064,221.185501 
z"/>
<path fill="#2F4949" opacity="1.000000" stroke="none" 
	d="
M158.933075,241.298737 
	C158.989868,242.136887 158.623688,242.955017 158.257507,243.773148 
	C157.800842,243.151245 157.344193,242.529343 156.854614,241.576385 
	C157.384491,241.256439 157.947296,241.267578 158.933075,241.298737 
z"/>
<path fill="#2F4949" opacity="1.000000" stroke="none" 
	d="
M167.253479,136.784943 
	C167.889099,137.672821 168.498550,138.934906 169.116776,140.550659 
	C168.492813,139.655930 167.860046,138.407547 167.253479,136.784943 
z"/>
<path fill="#2F4949" opacity="1.000000" stroke="none" 
	d="
M179.329926,166.044601 
	C179.908646,166.897263 180.473206,168.092331 181.035309,169.622742 
	C180.460495,168.767715 179.888138,167.577362 179.329926,166.044601 
z"/>
<path fill="#2F4949" opacity="1.000000" stroke="none" 
	d="
M163.631470,231.143219 
	C163.553177,231.968658 163.186096,232.972961 162.581787,234.192505 
	C162.677277,233.379196 163.009979,232.350632 163.631470,231.143219 
z"/>
<path fill="#2F4949" opacity="1.000000" stroke="none" 
	d="
M179.628845,193.198486 
	C179.545029,194.003555 179.171234,194.971436 178.567596,196.146774 
	C178.671478,195.356598 179.005173,194.358948 179.628845,193.198486 
z"/>
<path fill="#2F4949" opacity="1.000000" stroke="none" 
	d="
M178.138489,163.254913 
	C178.550461,163.673233 178.947708,164.422195 179.379578,165.501175 
	C178.984055,165.082657 178.553909,164.334106 178.138489,163.254913 
z"/>
<path fill="#2F4949" opacity="1.000000" stroke="none" 
	d="
M169.114929,141.228760 
	C169.528534,141.633835 169.934418,142.370926 170.385406,143.428925 
	C169.989426,143.020172 169.548340,142.290466 169.114929,141.228760 
z"/>
<path fill="#2F4949" opacity="1.000000" stroke="none" 
	d="
M171.143387,213.387131 
	C171.176300,213.774002 170.967957,214.385727 170.522644,215.214096 
	C170.491150,214.824493 170.696640,214.218231 171.143387,213.387131 
z"/>
<path fill="#2F4949" opacity="1.000000" stroke="none" 
	d="
M182.856003,185.361816 
	C182.956848,185.711090 182.885345,186.292297 182.598862,187.084183 
	C182.483795,186.727829 182.583710,186.160797 182.856003,185.361816 
z"/>
<path fill="#2F4949" opacity="1.000000" stroke="none" 
	d="
M182.166183,187.418503 
	C182.181870,187.825256 181.934296,188.450073 181.424347,189.289673 
	C181.408951,188.881821 181.655930,188.259201 182.166183,187.418503 
z"/>
<path fill="#2F4949" opacity="1.000000" stroke="none" 
	d="
M180.831268,190.221497 
	C180.910950,190.574982 180.815231,191.174637 180.499512,191.981293 
	C180.404953,191.614731 180.530411,191.041199 180.831268,190.221497 
z"/>
<path fill="#2F4949" opacity="1.000000" stroke="none" 
	d="
M177.825317,197.388229 
	C177.900192,197.759323 177.785049,198.367035 177.421844,199.175537 
	C177.327637,198.792511 177.481445,198.208679 177.825317,197.388229 
z"/>
<path fill="#2F4949" opacity="1.000000" stroke="none" 
	d="
M176.159225,201.424713 
	C176.195007,201.832291 175.976501,202.465851 175.500824,203.317993 
	C175.464081,202.907959 175.684509,202.279343 176.159225,201.424713 
z"/>
<path fill="#2F4949" opacity="1.000000" stroke="none" 
	d="
M172.308945,148.814713 
	C172.607971,149.068100 172.923660,149.659103 173.234543,150.598312 
	C172.928360,150.348450 172.626984,149.750397 172.308945,148.814713 
z"/>
<path fill="#2F4949" opacity="1.000000" stroke="none" 
	d="
M169.841049,216.263947 
	C169.930420,216.635895 169.829300,217.241318 169.479889,218.039917 
	C169.371262,217.654541 169.510910,217.075958 169.841049,216.263947 
z"/>
<path fill="#2F4949" opacity="1.000000" stroke="none" 
	d="
M175.237198,156.062927 
	C175.513885,156.268738 175.790024,156.768265 176.063766,157.557831 
	C175.786453,157.350815 175.511551,156.853714 175.237198,156.062927 
z"/>
<path fill="#2F4949" opacity="1.000000" stroke="none" 
	d="
M169.073990,218.306915 
	C169.119125,218.693359 168.942673,219.326141 168.527435,220.180450 
	C168.476578,219.785736 168.664490,219.169495 169.073990,218.306915 
z"/>
<path fill="#2F4949" opacity="1.000000" stroke="none" 
	d="
M174.332184,153.867401 
	C174.635162,154.103226 174.955338,154.667480 175.285645,155.569534 
	C174.980331,155.336823 174.664856,154.766312 174.332184,153.867401 
z"/>
<path fill="#2F4949" opacity="1.000000" stroke="none" 
	d="
M173.187134,151.107910 
	C173.473206,151.320129 173.762009,151.830826 174.040970,152.641571 
	C173.750702,152.429886 173.470291,151.918121 173.187134,151.107910 
z"/>
<path fill="#2F4949" opacity="1.000000" stroke="none" 
	d="
M176.764252,200.181946 
	C176.861237,200.326874 176.800186,200.666992 176.529221,201.168900 
	C176.414948,201.012848 176.510590,200.694992 176.764252,200.181946 
z"/>
<path fill="#D4C072" opacity="1.000000" stroke="none" 
	d="
M434.999664,216.544891 
	C422.168884,216.550430 409.836334,216.674026 397.508606,216.484222 
	C394.147186,216.432449 392.451721,217.503952 391.220886,220.652420 
	C386.561279,232.571625 381.511749,244.338638 376.873627,256.265839 
	C375.421722,259.999481 373.555725,261.958069 369.293579,261.392151 
	C366.389526,261.006531 363.392883,261.318390 359.514984,261.318390 
	C362.920990,253.111145 365.991272,245.662643 369.100067,238.230255 
	C385.402130,199.256042 401.798096,160.320648 417.910065,121.268059 
	C419.812866,116.655975 423.084808,118.143745 426.095734,117.953423 
	C428.811127,117.781784 431.418549,117.344292 432.951080,121.071709 
	C451.920349,167.209412 471.070404,213.272781 490.168884,259.357391 
	C490.295471,259.662842 490.352386,259.997162 490.701630,261.249451 
	C486.098145,261.249451 481.713470,261.437500 477.369507,261.100494 
	C476.431305,261.027710 475.349884,259.187256 474.825592,257.952454 
	C469.561523,245.554901 464.295685,233.155640 459.282776,220.655594 
	C458.023926,217.516617 456.353363,216.344162 452.993011,216.490524 
	C447.172150,216.744049 441.331848,216.550797 434.999664,216.544891 
M418.166962,151.692612 
	C410.936890,169.288910 403.706848,186.885193 396.265167,204.996490 
	C415.919403,204.996490 434.649292,204.996490 454.105652,204.996490 
	C444.536560,181.517059 435.169739,158.533981 425.403473,134.570770 
	C422.830475,140.649704 420.643616,145.816330 418.166962,151.692612 
z"/>
<path fill="#0B395F" opacity="1.000000" stroke="none" 
	d="
M418.311859,151.337784 
	C420.643616,145.816330 422.830475,140.649704 425.403473,134.570770 
	C435.169739,158.533981 444.536560,181.517059 454.105652,204.996490 
	C434.649292,204.996490 415.919403,204.996490 396.265167,204.996490 
	C403.706848,186.885193 410.936890,169.288910 418.311859,151.337784 
z"/>
</svg>